<?xml version="1.0" standalone="no"?>
<!DOCTYPE svg PUBLIC "-//W3C//DTD SVG 20010904//EN"
 "http://www.w3.org/TR/2001/REC-SVG-20010904/DTD/svg10.dtd">
<svg version="1.0" xmlns="http://www.w3.org/2000/svg"
 width="612.000000pt" height="612.000000pt" viewBox="0 0 612.000000 612.000000"
 preserveAspectRatio="xMidYMid meet">

<g transform="translate(0.000000,612.000000) scale(0.100000,-0.100000)"
fill="#000000" stroke="none">
<path d="M2866 4679 c-43 -10 -110 -36 -150 -56 -93 -48 -215 -170 -273 -273
-79 -140 -139 -367 -159 -597 -5 -59 -10 -83 -20 -83 -44 0 -50 -143 -11 -260
42 -124 105 -220 145 -220 14 0 30 -25 62 -97 50 -109 146 -261 187 -293 23
-18 26 -27 24 -73 -3 -74 -38 -302 -57 -367 -27 -93 -9 -85 -399 -186 -264
-68 -407 -114 -499 -162 -56 -29 -75 -46 -103 -90 -85 -133 -162 -341 -166
-450 l-2 -52 1617 -3 1618 -2 0 31 c0 84 -45 254 -96 360 -88 185 -186 235
-769 389 -137 36 -260 72 -272 80 -37 24 -72 176 -91 395 l-9 95 60 65 c46 51
75 97 131 212 46 96 76 148 87 148 38 0 104 104 142 220 43 135 44 252 0 258
-19 3 -21 12 -28 90 -21 262 -88 488 -189 640 -99 150 -255 256 -419 287 -109
21 -263 18 -361 -6z"/>
</g>
</svg>
